<?xml version="1.0" standalone="no"?>
<!DOCTYPE svg PUBLIC "-//W3C//DTD SVG 20010904//EN"
 "http://www.w3.org/TR/2001/REC-SVG-20010904/DTD/svg10.dtd">
<svg version="1.0" xmlns="http://www.w3.org/2000/svg"
 width="1020.000000pt" height="1020.000000pt" viewBox="0 0 1020.000000 1020.000000"
 preserveAspectRatio="xMidYMid meet">
<metadata>
Created by potrace 1.14, written by Peter Selinger 2001-2017
</metadata>
<g transform="translate(0.000000,1020.000000) scale(0.100000,-0.100000)"
fill="#000000" stroke="none">
<path d="M4540 9723 c-792 -37 -1605 -316 -2260 -776 -866 -608 -1481 -1485
-1740 -2482 -58 -226 -88 -391 -122 -680 -19 -165 -16 -724 5 -890 9 -71 19
-150 22 -175 l6 -45 -58 -34 c-78 -48 -204 -170 -253 -247 -55 -87 -77 -148
-96 -262 -44 -268 46 -444 261 -512 22 -7 44 -16 49 -21 6 -5 -10 -29 -37 -58
-61 -65 -140 -187 -168 -259 -30 -77 -36 -169 -15 -211 51 -97 169 -95 442 9
59 23 108 39 111 36 8 -8 112 -270 109 -274 -2 -2 -32 -10 -67 -18 -154 -36
-274 -125 -335 -250 -32 -64 -37 -85 -41 -166 -7 -124 15 -184 91 -256 64 -61
135 -97 286 -147 128 -42 197 -74 221 -101 13 -15 18 -52 22 -184 4 -95 13
-192 22 -229 44 -180 157 -284 324 -298 78 -6 197 8 288 36 l62 19 41 -53 c61
-79 225 -233 320 -301 330 -235 756 -374 1300 -423 149 -14 565 -14 744 0 582
44 1236 185 1876 404 102 34 216 75 254 89 72 27 85 25 86 -15 0 -9 19 -54 42
-100 78 -158 230 -280 403 -324 76 -19 214 -19 290 0 275 72 479 333 463 595
-8 131 -69 226 -182 282 l-49 25 138 72 c286 151 612 347 880 529 949 645
1480 1289 1626 1972 19 86 23 138 23 285 1 196 -8 261 -56 414 l-30 93 40 42
c122 127 194 307 195 481 0 131 -31 229 -107 327 l-34 46 61 12 c73 14 103 29
137 64 35 38 40 130 11 207 -51 134 -186 289 -339 389 -61 40 -81 58 -76 69
16 41 16 171 0 249 -17 86 -66 223 -111 313 -99 197 -270 338 -472 390 -133
34 -348 35 -510 3 -28 -5 -30 -3 -47 53 -29 91 -69 165 -191 348 -612 920
-1555 1575 -2625 1825 -412 97 -808 133 -1230 113z m450 -183 c319 -20 514
-49 800 -120 711 -176 1361 -539 1887 -1053 228 -223 405 -437 583 -707 145
-220 170 -284 177 -455 10 -226 -33 -326 -282 -655 -180 -238 -206 -262 -428
-403 -871 -551 -1920 -969 -2882 -1146 -425 -79 -716 -105 -1135 -105 -498 1
-903 53 -1165 151 -419 155 -778 530 -909 950 -60 192 -70 270 -70 513 1 606
157 1254 436 1815 l50 100 -37 -35 c-357 -338 -649 -738 -875 -1195 -249 -505
-386 -1005 -431 -1575 -16 -205 -6 -622 21 -820 33 -251 66 -346 166 -486 52
-73 53 -76 23 -56 -97 61 -208 206 -251 327 -66 184 -104 678 -79 1030 54 759
272 1417 677 2035 428 655 1021 1171 1729 1503 623 292 1322 428 1995 387z
m4076 -2335 c230 -44 378 -204 464 -502 43 -149 35 -226 -31 -298 -92 -100
-283 -161 -909 -291 -373 -77 -482 -112 -563 -184 -88 -76 -101 -167 -52 -350
24 -88 29 -125 29 -230 1 -144 -18 -227 -84 -367 -66 -141 -170 -227 -308
-253 -90 -18 -323 -7 -532 25 -311 47 -432 30 -505 -73 -26 -38 -30 -54 -33
-120 -3 -64 3 -100 34 -217 36 -133 37 -148 38 -300 1 -185 -10 -241 -75 -373
-73 -150 -208 -266 -362 -314 -60 -18 -87 -20 -210 -16 -139 4 -145 5 -292 56
-82 28 -258 94 -390 147 -424 170 -572 190 -753 102 -75 -36 -193 -142 -264
-237 -147 -196 -314 -311 -525 -361 -75 -18 -107 -21 -213 -15 -148 6 -212 22
-339 82 -124 58 -201 117 -353 271 -148 150 -200 183 -296 183 -77 0 -141 -20
-211 -66 -31 -20 -150 -133 -266 -250 -227 -230 -293 -281 -425 -328 -183 -66
-429 -33 -481 64 -33 61 -18 196 37 344 33 86 64 213 64 259 0 81 -39 150
-105 185 -39 20 -109 20 -422 3 -269 -15 -337 -10 -413 29 -82 42 -104 94 -98
233 4 90 9 111 40 177 19 41 53 98 75 125 37 46 150 143 157 134 1 -2 19 -34
39 -70 88 -160 213 -284 367 -363 148 -77 662 -230 809 -241 25 -2 87 -10 136
-19 89 -15 240 -33 485 -57 157 -15 647 -6 845 15 77 8 185 20 240 26 131 13
265 36 395 65 58 13 177 41 265 60 88 20 230 56 315 80 85 23 171 46 190 50
67 14 484 157 654 225 388 154 730 312 946 437 52 30 169 98 260 150 91 53
233 140 316 194 83 55 154 99 157 99 18 0 349 249 517 389 151 127 558 534
691 691 123 145 342 434 393 519 70 115 105 226 114 366 l7 100 75 11 c109 17
267 16 356 -1z m635 -997 c125 -82 269 -250 269 -312 0 -17 -12 -20 -195 -41
-359 -42 -728 -135 -1073 -270 -148 -57 -363 -150 -442 -190 -27 -14 -54 -25
-60 -25 -5 0 -10 21 -10 46 0 26 -13 107 -30 181 -16 73 -30 144 -30 157 0 63
116 103 555 192 487 99 735 173 858 259 34 23 69 43 78 44 9 0 45 -18 80 -41z
m14 -587 c63 -36 121 -99 148 -160 32 -71 35 -191 7 -283 -60 -198 -188 -319
-496 -468 -111 -54 -149 -77 -178 -111 -63 -74 -69 -108 -75 -439 -7 -327 -7
-328 -75 -388 -64 -56 -161 -75 -481 -92 -331 -18 -479 -47 -628 -122 -153
-76 -232 -155 -488 -483 -171 -220 -283 -331 -381 -379 -103 -50 -174 -66
-299 -66 l-107 0 -12 102 c-16 132 -8 363 20 527 11 69 22 126 23 127 1 0 136
67 299 147 555 271 1141 610 1581 912 291 200 380 268 477 365 211 210 351
480 386 740 4 27 12 54 18 59 11 9 147 38 191 40 11 0 43 -12 70 -28z m-2773
-1037 c67 -9 127 -19 131 -24 5 -4 -6 -25 -25 -46 -52 -59 -119 -149 -186
-251 l-60 -92 -7 47 c-3 26 -20 100 -36 164 -36 146 -38 195 -6 208 31 13 50
12 189 -6z m2760 -110 c4 -21 7 -73 7 -114 1 -63 -4 -87 -32 -150 -184 -421
-600 -891 -1167 -1319 -278 -210 -649 -448 -1020 -656 -136 -76 -628 -325
-642 -325 -3 0 -8 44 -10 97 -5 89 -31 194 -72 284 -8 17 44 29 224 50 282 33
500 133 694 319 116 111 188 201 337 421 188 278 238 307 572 335 262 21 332
41 454 131 29 21 71 49 94 63 84 50 151 171 165 297 4 32 18 88 31 126 13 37
39 126 58 197 37 145 59 189 111 221 39 24 163 69 179 65 5 -1 13 -20 17 -42z
m-8638 -901 c-3 -16 -13 -53 -21 -84 l-15 -56 -91 -28 c-51 -15 -200 -67 -332
-115 -132 -49 -253 -92 -269 -96 l-29 -7 44 84 c35 68 65 106 155 195 l111
111 159 10 c87 5 189 10 227 11 l67 2 -6 -27z m8425 -50 c-202 -359 -585 -763
-1064 -1123 -441 -331 -1040 -684 -1604 -945 l-163 -75 -69 22 c-38 12 -69 24
-69 28 0 3 66 34 148 69 720 313 1450 745 1987 1175 330 264 630 575 806 834
30 44 56 78 58 77 2 -2 -12 -30 -30 -62z m-4588 -38 c35 -9 182 -64 327 -121
478 -190 586 -219 796 -211 76 2 156 12 191 21 64 18 178 70 234 107 l34 23
-7 -45 c-52 -350 -22 -701 80 -943 86 -203 114 -321 94 -395 -23 -85 -85 -112
-192 -83 -97 27 -152 64 -258 172 -111 114 -144 134 -220 134 -72 1 -114 -24
-248 -146 -121 -111 -182 -150 -300 -191 -84 -30 -93 -31 -262 -32 -172 0
-176 0 -250 30 -202 82 -292 175 -677 695 -91 124 -199 265 -240 313 -41 49
-73 90 -71 92 1 1 32 17 68 35 163 81 280 179 401 336 112 144 163 187 264
221 49 16 147 11 236 -12z m-3944 -908 c214 -288 497 -474 828 -543 250 -52
492 -35 1080 77 247 47 656 137 840 186 72 19 181 48 244 64 63 17 118 32 122
34 3 3 42 -44 84 -103 43 -59 95 -129 116 -157 21 -27 37 -50 36 -52 -1 -1
-31 6 -67 14 -37 9 -111 16 -170 17 -252 1 -408 -107 -550 -381 -105 -205
-276 -274 -422 -171 -55 38 -77 64 -143 163 -88 133 -166 191 -270 202 -89 9
-198 -32 -392 -150 -348 -211 -600 -331 -802 -383 -87 -22 -200 -16 -238 12
-64 46 -93 168 -93 387 0 107 -3 128 -24 172 -43 94 -118 143 -329 214 -230
77 -267 106 -267 206 0 128 79 215 232 255 118 31 116 31 185 -63z m5143 -734
c42 -43 107 -95 143 -117 37 -21 67 -40 67 -41 0 -12 -472 -177 -695 -243
-529 -157 -937 -233 -1265 -233 -180 0 -274 15 -368 62 -87 43 -149 131 -151
214 -4 168 215 300 439 266 97 -15 152 -36 248 -92 131 -77 216 -117 325 -154
387 -128 735 -31 1057 296 63 64 117 117 119 118 2 1 39 -34 81 -76z m-4104
-551 c330 -278 786 -438 1374 -483 191 -14 643 -6 860 16 578 58 1286 230
1918 465 78 29 144 51 147 49 2 -3 -4 -31 -13 -63 l-17 -58 -75 -29 c-41 -16
-159 -58 -262 -94 -740 -253 -1392 -386 -2039 -415 -865 -38 -1517 149 -1915
549 -86 86 -94 97 -78 108 10 7 21 13 24 13 3 0 37 -26 76 -58z m5207 -44 c51
-15 94 -59 103 -105 15 -82 -31 -218 -103 -302 -221 -259 -653 -154 -739 179
-17 67 -15 193 4 212 6 6 42 -1 93 -17 117 -38 232 -38 347 -1 143 46 223 56
295 34z"/>
<path d="M6921 8144 c-28 -36 -27 -79 4 -109 62 -62 162 2 134 85 -13 36 -36
50 -83 50 -25 0 -40 -7 -55 -26z"/>
<path d="M6296 7398 c-43 -40 -36 -107 15 -133 82 -43 160 65 94 130 -31 32
-76 32 -109 3z"/>
<path d="M7810 7337 c-70 -36 -60 -134 16 -153 57 -15 113 41 99 99 -13 50
-70 77 -115 54z"/>
<path d="M4130 6622 c-32 -32 -37 -56 -19 -95 22 -49 83 -60 125 -23 54 45 29
128 -43 142 -27 5 -37 1 -63 -24z"/>
<path d="M6195 6079 c-41 -24 -56 -68 -39 -114 8 -19 55 -45 84 -45 56 0 91
92 53 139 -22 25 -71 35 -98 20z"/>
<path d="M2705 5785 c-51 -50 -17 -135 55 -135 53 0 84 27 84 73 0 77 -86 116
-139 62z"/>
</g>
</svg>
